<svg width="20" height="20" viewBox="0 0 20 20" fill="none" xmlns="http://www.w3.org/2000/svg">
<path d="M3.52266 10.597C3.39643 10.4776 3.33331 10.2985 3.33331 10.1791C3.33331 10.0597 3.39643 9.8806 3.52266 9.76119L4.40629 8.92537C4.65876 8.68657 5.03745 8.68657 5.28992 8.92537L7.7988 11.5373C7.92503 11.6567 8.11438 11.6567 8.24061 11.5373L14.71 5.1791C14.9625 4.9403 15.3412 4.9403 15.5937 5.1791L16.4773 6.01493C16.7298 6.25373 16.7298 6.61194 16.4773 6.85075L8.42996 14.8209C8.30373 14.9403 8.17749 15 7.98815 15C7.7988 15 7.67256 14.9403 7.54633 14.8209L3.52266 10.597Z" fill="#44B600"/>
</svg>
