<svg width="20" height="20" viewBox="0 0 20 20" fill="none" xmlns="http://www.w3.org/2000/svg">
<path fill-rule="evenodd" clip-rule="evenodd" d="M15.5882 5.64729C15.9137 5.32186 15.9137 4.79422 15.5882 4.46878L15.5312 4.4118C15.2058 4.08637 14.6782 4.08637 14.3527 4.4118L10 8.76452L5.64729 4.4118C5.32186 4.08637 4.79422 4.08637 4.46878 4.4118L4.4118 4.46878C4.08637 4.79422 4.08637 5.32186 4.4118 5.64729L8.76452 10L4.4118 14.3527C4.08637 14.6782 4.08637 15.2058 4.4118 15.5312L4.46878 15.5882C4.79422 15.9137 5.32186 15.9137 5.64729 15.5882L10 11.2355L14.3527 15.5882C14.6782 15.9137 15.2058 15.9137 15.5312 15.5882L15.5882 15.5312C15.9137 15.2058 15.9137 14.6782 15.5882 14.3527L11.2355 10L15.5882 5.64729Z" fill="#FF4545"/>
</svg>
