<svg width="24" height="24" viewBox="0 0 24 24" fill="none" xmlns="http://www.w3.org/2000/svg">
<path fill-rule="evenodd" clip-rule="evenodd" d="M18.7058 6.77675C19.0963 6.38623 19.0963 5.75306 18.7058 5.36254L18.6374 5.29416C18.2469 4.90364 17.6137 4.90364 17.2232 5.29416L12 10.5174L6.7767 5.29416C6.38618 4.90363 5.75302 4.90364 5.36249 5.29416L5.29411 5.36254C4.90359 5.75306 4.90359 6.38623 5.29411 6.77675L10.5174 12L5.29411 17.2233C4.90359 17.6138 4.90359 18.247 5.29411 18.6375L5.36249 18.7059C5.75302 19.0964 6.38618 19.0964 6.7767 18.7059L12 13.4826L17.2232 18.7059C17.6137 19.0964 18.2469 19.0964 18.6374 18.7059L18.7058 18.6375C19.0963 18.247 19.0963 17.6138 18.7058 17.2233L13.4826 12L18.7058 6.77675Z" fill="#16141A"/>
</svg>
