<svg width="36" height="36" viewBox="0 0 36 36" fill="none" xmlns="http://www.w3.org/2000/svg">
<circle cx="18" cy="18" r="14" fill="#57BE19"/>
<path d="M10.713 18.7164C10.571 18.5731 10.5 18.3582 10.5 18.2149C10.5 18.0716 10.571 17.8567 10.713 17.7134L11.7071 16.7104C11.9911 16.4239 12.4172 16.4239 12.7012 16.7104L15.5237 19.8448C15.6657 19.9881 15.8787 19.9881 16.0207 19.8448L23.2988 12.2149C23.5828 11.9284 24.0089 11.9284 24.2929 12.2149L25.287 13.2179C25.571 13.5045 25.571 13.9343 25.287 14.2209L16.2337 23.7851C16.0917 23.9284 15.9497 24 15.7367 24C15.5237 24 15.3817 23.9284 15.2396 23.7851L10.713 18.7164Z" fill="white"/>
</svg>
