<svg width="36" height="36" viewBox="0 0 36 36" fill="none" xmlns="http://www.w3.org/2000/svg">
<mask id="mask0" mask-type="alpha" maskUnits="userSpaceOnUse" x="0" y="0" width="36" height="36">
<rect width="36" height="36" rx="5.4" fill="white"/>
</mask>
<g mask="url(#mask0)">
<path fill-rule="evenodd" clip-rule="evenodd" d="M21.4839 -7.25806H14.5161V-0.290315H21.4839V-7.25806ZM14.5161 8.10623e-06H21.4839V6.96775H14.5161V8.10623e-06ZM-14.8065 7.25807H-21.7742V14.2258H-14.8065V7.25807ZM-14.5161 7.25807H-7.54839V14.2258H-14.5161V7.25807ZM-7.62939e-06 7.25807H6.96774V14.2258H-7.62939e-06V7.25807ZM21.4839 7.25807H14.5161V14.2258H21.4839V7.25807ZM28.7419 7.25807H21.7742V14.2258H28.7419V7.25807ZM29.0322 7.25807H36V14.2258H29.0322V7.25807ZM43.2581 7.25807H36.2903V14.2258H43.2581V7.25807ZM43.5484 7.25807H50.5161V14.2258H43.5484V7.25807ZM57.7742 7.25807H50.8064V14.2258H57.7742V7.25807ZM14.2258 7.25807H7.25806V14.2258H14.2258V7.25807ZM-7.25807 7.25807H-0.290329V14.2258H-7.25807V7.25807ZM21.4839 14.5161H14.5161V21.4839H21.4839V14.5161ZM21.7742 14.5161H28.7419V21.4839H21.7742V14.5161ZM36 14.5161H29.0322V21.4839H36V14.5161ZM36.2903 14.5161H43.2581V21.4839H36.2903V14.5161ZM50.5161 14.5161H43.5484V21.4839H50.5161V14.5161ZM50.8064 14.5161H57.7742V21.4839H50.8064V14.5161ZM6.96774 14.5161H-7.62939e-06V21.4839H6.96774V14.5161ZM7.25806 14.5161H14.2258V21.4839H7.25806V14.5161ZM-7.54839 14.5161H-14.5161V21.4839H-7.54839V14.5161ZM-21.7742 14.5161H-14.8065V21.4839H-21.7742V14.5161ZM-0.290329 14.5161H-7.25807V21.4839H-0.290329V14.5161ZM14.5161 21.7742H21.4839V28.7419H14.5161V21.7742ZM28.7419 21.7742H21.7742V28.7419H28.7419V21.7742ZM29.0322 21.7742H36V28.7419H29.0322V21.7742ZM43.2581 21.7742H36.2903V28.7419H43.2581V21.7742ZM43.5484 21.7742H50.5161V28.7419H43.5484V21.7742ZM57.7742 21.7742H50.8064V28.7419H57.7742V21.7742ZM-7.62939e-06 21.7742H6.96774V28.7419H-7.62939e-06V21.7742ZM14.2258 21.7742H7.25806V28.7419H14.2258V21.7742ZM-14.5161 21.7742H-7.54839V28.7419H-14.5161V21.7742ZM-14.8065 21.7742H-21.7742V28.7419H-14.8065V21.7742ZM14.5161 29.0323H21.4839V36H14.5161V29.0323ZM28.7419 29.0323H21.7742V36H28.7419V29.0323ZM29.0322 29.0323H36V36H29.0322V29.0323ZM43.2581 29.0323H36.2903V36H43.2581V29.0323ZM43.5484 29.0323H50.5161V36H43.5484V29.0323ZM57.7742 29.0323H50.8064V36H57.7742V29.0323ZM-7.62939e-06 29.0323H6.96774V36H-7.62939e-06V29.0323ZM14.2258 29.0323H7.25806V36H14.2258V29.0323ZM-14.5161 29.0323H-7.54839V36H-14.5161V29.0323ZM-14.8065 29.0323H-21.7742V36H-14.8065V29.0323ZM-7.25807 29.0323H-0.290329V36H-7.25807V29.0323ZM21.4839 36.2903H14.5161V43.2581H21.4839V36.2903ZM21.7742 36.2903H28.7419V43.2581H21.7742V36.2903ZM36 36.2903H29.0322V43.2581H36V36.2903ZM36.2903 36.2903H43.2581V43.2581H36.2903V36.2903ZM50.5161 36.2903H43.5484V43.2581H50.5161V36.2903ZM50.8064 36.2903H57.7742V43.2581H50.8064V36.2903ZM6.96774 36.2903H-7.62939e-06V43.2581H6.96774V36.2903ZM7.25806 36.2903H14.2258V43.2581H7.25806V36.2903ZM-7.54839 36.2903H-14.5161V43.2581H-7.54839V36.2903ZM-21.7742 36.2903H-14.8065V43.2581H-21.7742V36.2903ZM-0.290329 36.2903H-7.25807V43.2581H-0.290329V36.2903ZM28.7419 8.10623e-06H21.7742V6.96775H28.7419V8.10623e-06ZM29.0322 8.10623e-06H36V6.96775H29.0322V8.10623e-06ZM43.2581 8.10623e-06H36.2903V6.96775H43.2581V8.10623e-06ZM43.5484 8.10623e-06H50.5161V6.96775H43.5484V8.10623e-06ZM57.7742 8.10623e-06H50.8064V6.96775H57.7742V8.10623e-06ZM-7.62939e-06 8.10623e-06H6.96774V6.96775H-7.62939e-06V8.10623e-06ZM14.2258 8.10623e-06H7.25806V6.96775H14.2258V8.10623e-06ZM-14.5161 8.10623e-06H-7.54839V6.96775H-14.5161V8.10623e-06ZM-14.8065 8.10623e-06H-21.7742V6.96775H-14.8065V8.10623e-06ZM-7.25807 8.10623e-06H-0.290329V6.96775H-7.25807V8.10623e-06ZM21.7742 -7.25806H28.7419V-0.290315H21.7742V-7.25806ZM36 -7.25806H29.0322V-0.290315H36V-7.25806ZM36.2903 -7.25806H43.2581V-0.290315H36.2903V-7.25806ZM50.5161 -7.25806H43.5484V-0.290315H50.5161V-7.25806ZM50.8064 -7.25806H57.7742V-0.290315H50.8064V-7.25806ZM6.96774 -7.25806H-7.62939e-06V-0.290315H6.96774V-7.25806ZM7.25806 -7.25806H14.2258V-0.290315H7.25806V-7.25806ZM-7.54839 -7.25806H-14.5161V-0.290315H-7.54839V-7.25806ZM-21.7742 -7.25806H-14.8065V-0.290315H-21.7742V-7.25806ZM-0.290329 -7.25806H-7.25807V-0.290315H-0.290329V-7.25806Z" fill="#736E7D" fill-opacity="0.32"/>
<path fill-rule="evenodd" clip-rule="evenodd" d="M14.5161 14.8065C14.5161 14.6461 14.6461 14.5161 14.8064 14.5161H21.1935C21.3539 14.5161 21.4839 14.6461 21.4839 14.8065V21.1936C21.4839 21.3539 21.3539 21.4839 21.1935 21.4839H14.8064C14.6461 21.4839 14.5161 21.3539 14.5161 21.1936V14.8065Z" fill="#FF2D55" fill-opacity="0.32"/>
<path d="M14.8064 14.8065L21.1935 14.8065V21.1936H14.8064L14.8064 14.8065Z" stroke="#FF2D55" stroke-opacity="0.48" stroke-width="0.580645"/>
</g>
</svg>
