<svg width="36" height="36" viewBox="0 0 36 36" fill="none" xmlns="http://www.w3.org/2000/svg">
<rect width="36" height="36" rx="4.5" fill="#736E7D" fill-opacity="0.2"/>
<path fill-rule="evenodd" clip-rule="evenodd" d="M25.5 22.5105L18 27L10.5 22.5105V13.4895L18 9L25.5 13.4895V22.5105ZM11.8271 21.7343L18.0201 25.4056L24.1729 21.7343V14.3287L18 10.5944L11.8271 14.3287V21.7343ZM18 22.6364C20.4933 22.6364 22.504 20.5385 22.504 17.958C22.504 15.3566 20.4933 13.1958 18 13.1958C15.5067 13.1958 13.496 15.3566 13.496 17.958C13.496 20.5385 15.5067 22.6364 18 22.6364ZM14.5416 17.958C14.5416 19.972 16.0496 21.5455 18 21.5455C19.7694 21.5455 21.4584 19.9301 21.4584 17.958C21.4584 15.965 19.7895 14.2867 18 14.2867C16.0496 14.2867 14.5416 15.965 14.5416 17.958Z" fill="#16141A"/>
</svg>
