<svg width="64" height="64" viewBox="0 0 64 64" fill="none" xmlns="http://www.w3.org/2000/svg">
<path fill-rule="evenodd" clip-rule="evenodd" d="M37.6 1.875C37.6 0.8395 38.4358 0 39.4667 0C40.4976 0 41.3333 0.8395 41.3333 1.875V5.75C41.3333 6.7855 40.4976 7.625 39.4667 7.625C38.4358 7.625 37.6 6.7855 37.6 5.75V1.875ZM58.5701 39.625C59.4587 38.6287 60 37.3138 60 35.875C60 32.7738 57.4875 30.25 54.4 30.25H43.531C44.6075 26.9688 45.0667 22.615 45.0667 20.7487V18.875C45.0667 14.74 41.7166 11.375 37.6 11.375H35.7333C34.8772 11.375 34.1305 11.96 33.9227 12.795L32.906 16.8813C31.4811 22.6038 26.9575 28.9175 22.2759 30.065C21.4558 27.98 19.4311 26.5 17.0667 26.5H5.86667C4.83627 26.5 4 27.34 4 28.375V62.125C4 63.16 4.83627 64 5.86667 64H17.0667C19.293 64 21.2194 62.6888 22.1216 60.7938L28.5355 62.9412C30.6324 63.6437 32.8176 64 35.029 64H50.6667C53.7541 64 56.2667 61.4762 56.2667 58.375C56.2667 57.6437 56.1273 56.9438 55.8734 56.3025C58.2478 55.6513 60 53.465 60 50.875C60 49.4362 59.4587 48.1213 58.5701 47.125C59.4587 46.1287 60 44.8138 60 43.375C60 41.9362 59.4587 40.6213 58.5701 39.625ZM18.9333 58.375C18.9333 59.4087 18.0958 60.25 17.0667 60.25H7.73333V30.25H17.0667C18.0958 30.25 18.9333 31.0912 18.9333 32.125V58.375ZM54.4 41.5H50.6667C49.6363 41.5 48.8 40.66 48.8 39.625C48.8 38.59 49.6363 37.75 50.6667 37.75H54.4C55.4292 37.75 56.2667 36.9088 56.2667 35.875C56.2667 34.8412 55.4292 34 54.4 34H35.7333C34.7029 34 33.8667 33.16 33.8667 32.125C33.8667 31.09 34.7029 30.25 35.7333 30.25H39.5463C40.5493 28.095 41.3333 23.2663 41.3333 20.7488V18.875C41.3333 16.8075 39.6583 15.125 37.6 15.125H37.1906L36.5273 17.7913C35.6226 21.4275 33.5742 25.375 31.048 28.3525C28.4608 31.4012 25.5948 33.2637 22.6667 33.8225V57.0238L29.7152 59.3838C31.4313 59.9588 33.2196 60.25 35.029 60.25H50.6667C51.6958 60.25 52.5333 59.4087 52.5333 58.375C52.5333 57.3413 51.6958 56.5 50.6667 56.5C49.6363 56.5 48.8 55.66 48.8 54.625C48.8 53.59 49.6363 52.75 50.6667 52.75H54.4C55.4292 52.75 56.2667 51.9087 56.2667 50.875C56.2667 49.8413 55.4292 49 54.4 49H50.6667C49.6363 49 48.8 48.16 48.8 47.125C48.8 46.09 49.6363 45.25 50.6667 45.25H54.4C55.4292 45.25 56.2667 44.4087 56.2667 43.375C56.2667 42.3412 55.4292 41.5 54.4 41.5ZM15.2 54.625C15.2 55.6605 14.3643 56.5 13.3333 56.5C12.3024 56.5 11.4667 55.6605 11.4667 54.625C11.4667 53.5895 12.3024 52.75 13.3333 52.75C14.3643 52.75 15.2 53.5895 15.2 54.625ZM31.547 8.2685L28.9072 5.61688C28.1783 4.88462 26.9963 4.88462 26.2673 5.61688C25.5383 6.34912 25.5383 7.53625 26.2673 8.2685L28.9072 10.9201C29.6361 11.6523 30.8182 11.6524 31.547 10.9201C32.276 10.1879 32.276 9.00075 31.547 8.2685ZM50.0262 5.61688C50.7551 4.88462 51.9371 4.88462 52.666 5.61688C53.395 6.34912 53.395 7.53625 52.666 8.2685L50.0262 10.9201C49.2972 11.6524 48.1152 11.6523 47.3863 10.92C46.6573 10.1877 46.6573 9.00062 47.3863 8.26838L50.0262 5.61688Z" fill="#736E7D"/>
</svg>
