<svg width="24" height="24" viewBox="0 0 24 24" fill="none" xmlns="http://www.w3.org/2000/svg">
<path fill-rule="evenodd" clip-rule="evenodd" d="M5.98683 10.378L2 14.2708L5.98683 18.1636C6.21861 18.3899 6.59439 18.3899 6.82617 18.1636C7.05794 17.9373 7.05794 17.5704 6.82617 17.3441L4.31877 14.8958H13.875C14.2202 14.8958 14.5 14.616 14.5 14.2708C14.5 13.9256 14.2202 13.6458 13.875 13.6458H4.31877L6.82617 11.1976C7.05794 10.9713 7.05794 10.6044 6.82617 10.378C6.59439 10.1517 6.21861 10.1517 5.98683 10.378Z" fill="#736E7D"/>
<path fill-rule="evenodd" clip-rule="evenodd" d="M18.0132 12.9553L22 9.0625L18.0132 5.16973C17.7814 4.94342 17.4056 4.94342 17.1738 5.16973C16.9421 5.39604 16.9421 5.76295 17.1738 5.98926L19.6812 8.4375H10.125C9.77982 8.4375 9.5 8.71732 9.5 9.0625C9.5 9.40768 9.77982 9.6875 10.125 9.6875H19.6812L17.1738 12.1357C16.9421 12.362 16.9421 12.729 17.1738 12.9553C17.4056 13.1816 17.7814 13.1816 18.0132 12.9553Z" fill="#736E7D"/>
</svg>
