<svg width="48" height="48" viewBox="0 0 48 48" fill="none" xmlns="http://www.w3.org/2000/svg">
<circle opacity="0.16" cx="24" cy="24" r="24" fill="#FF5AFE"/>
<path fill-rule="evenodd" clip-rule="evenodd" d="M33.2059 20.1064C32.6764 18.8736 31.9667 17.8114 31.0767 16.9203C30.1873 16.0291 29.1237 15.3195 27.8866 14.7917C26.65 14.2639 25.3542 14 24.0002 14C22.646 14 21.3504 14.2641 20.1134 14.7917C18.8763 15.3195 17.8129 16.029 16.9232 16.9203C16.0335 17.8114 15.3237 18.8736 14.7942 20.1064C14.2648 21.3394 14 22.6352 14 23.9935C14 25.3518 14.2648 26.6497 14.7942 27.8869C15.3239 29.1244 16.0335 30.1884 16.9232 31.0797C17.8129 31.971 18.8763 32.6807 20.1134 33.208C21.3504 33.736 22.646 34 24.0002 34C25.3544 34 26.65 33.736 27.8866 33.208C29.1237 32.6804 30.1873 31.971 31.0767 31.0797C31.9667 30.1884 32.6763 29.1244 33.2059 27.8869C33.7354 26.6497 34 25.3518 34 23.9935C33.9998 22.6352 33.7354 21.3394 33.2059 20.1064ZM18.0755 27.8738C17.303 26.6889 16.9167 25.3949 16.9169 23.9933C16.9169 22.7129 17.2338 21.5275 17.8674 20.4372C18.501 19.3471 19.3605 18.4862 20.4454 17.8544C21.5305 17.2228 22.7154 16.9071 24.0002 16.9071C25.4327 16.9071 26.7344 17.3008 27.9065 18.0881L18.0755 27.8738ZM29.013 29.0165C29.6467 28.3848 30.1498 27.6298 30.5232 26.7516C30.8965 25.8732 31.0831 24.9539 31.0834 23.9934C31.0834 22.6004 30.7061 21.3241 29.9506 20.1647L20.1327 29.9376C21.322 30.708 22.6111 31.0928 23.9999 31.0928C24.9632 31.0928 25.8812 30.9044 26.7537 30.5282C27.6262 30.1521 28.3791 29.6481 29.013 29.0165Z" fill="#FF5AFE"/>
</svg>
