<svg width="48" height="48" viewBox="0 0 48 48" fill="none" xmlns="http://www.w3.org/2000/svg">
<circle opacity="0.16" cx="24" cy="24" r="24" fill="#4888EE"/>
<path fill-rule="evenodd" clip-rule="evenodd" d="M15.8182 14H32.1818C33.1845 14 34 14.8154 34 15.8182V18.5455C34 19.5482 33.1845 20.3637 32.1818 20.3637H15.8182C14.8154 20.3637 14 19.5482 14 18.5455V15.8182C14 14.8154 14.8154 14 15.8182 14ZM17.1818 18.5455C17.433 18.5455 17.6363 18.3422 17.6363 18.0909H17.6364V16.2727C17.6364 16.0215 17.4331 15.8182 17.1818 15.8182C16.9306 15.8182 16.7273 16.0215 16.7273 16.2727V18.0909C16.7273 18.3422 16.9305 18.5455 17.1818 18.5455ZM19.4545 18.0909C19.4545 18.3422 19.2512 18.5455 19 18.5455C18.7487 18.5455 18.5454 18.3422 18.5454 18.0909V16.2727C18.5454 16.0215 18.7487 15.8182 19 15.8182C19.2512 15.8182 19.4545 16.0215 19.4545 16.2727V18.0909ZM20.8182 18.5455C21.0694 18.5455 21.2727 18.3422 21.2727 18.0909V16.2727C21.2727 16.0215 21.0694 15.8182 20.8182 15.8182C20.5669 15.8182 20.3636 16.0215 20.3636 16.2727V18.0909C20.3636 18.3422 20.5669 18.5455 20.8182 18.5455ZM27.6363 18.0909C27.1352 18.0909 26.7273 17.683 26.7273 17.1818C26.7273 16.6807 27.1352 16.2727 27.6363 16.2727C28.1375 16.2727 28.5454 16.6806 28.5454 17.1818C28.5454 17.6829 28.1375 18.0909 27.6363 18.0909ZM29.4545 17.1818C29.4545 17.683 29.8625 18.0909 30.3636 18.0909C30.8647 18.0909 31.2727 17.6829 31.2727 17.1818C31.2727 16.6806 30.8647 16.2727 30.3636 16.2727C29.8625 16.2727 29.4545 16.6807 29.4545 17.1818ZM15.8182 20.8182H32.1818C33.1845 20.8182 34 21.6336 34 22.6364V25.3636C34 26.3664 33.1845 27.1818 32.1818 27.1818H15.8182C14.8154 27.1818 14 26.3664 14 25.3636V22.6364C14 21.6336 14.8154 20.8182 15.8182 20.8182ZM17.1818 25.3636C17.433 25.3636 17.6363 25.1603 17.6363 24.9091H17.6364V23.0909C17.6364 22.8396 17.4331 22.6363 17.1818 22.6363C16.9306 22.6363 16.7273 22.8396 16.7273 23.0909V24.9091C16.7273 25.1603 16.9305 25.3636 17.1818 25.3636ZM19.4545 24.9091C19.4545 25.1603 19.2512 25.3636 19 25.3636C18.7487 25.3636 18.5454 25.1603 18.5454 24.9091V23.0909C18.5454 22.8396 18.7487 22.6363 19 22.6363C19.2512 22.6363 19.4545 22.8396 19.4545 23.0909V24.9091ZM20.8182 25.3636C21.0694 25.3636 21.2727 25.1603 21.2727 24.9091V23.0909C21.2727 22.8396 21.0694 22.6363 20.8182 22.6363C20.5669 22.6363 20.3636 22.8396 20.3636 23.0909V24.9091C20.3636 25.1603 20.5669 25.3636 20.8182 25.3636ZM27.6363 24.9091C27.1352 24.9091 26.7273 24.5011 26.7273 24C26.7273 23.4989 27.1352 23.0909 27.6363 23.0909C28.1375 23.0909 28.5454 23.4989 28.5454 24C28.5454 24.5011 28.1375 24.9091 27.6363 24.9091ZM29.4545 24C29.4545 24.5011 29.8625 24.9091 30.3636 24.9091C30.8647 24.9091 31.2727 24.5011 31.2727 24C31.2727 23.4989 30.8647 23.0909 30.3636 23.0909C29.8625 23.0909 29.4545 23.4989 29.4545 24ZM32.1818 27.6363H15.8182C14.8154 27.6363 14 28.4518 14 29.4545V32.1818C14 33.1845 14.8154 34 15.8182 34H32.1818C33.1845 34 34 33.1846 34 32.1818V29.4545C34 28.4518 33.1845 27.6363 32.1818 27.6363ZM17.6363 31.7272C17.6363 31.9785 17.433 32.1818 17.1818 32.1818C16.9305 32.1818 16.7273 31.9785 16.7273 31.7272V29.9091C16.7273 29.6578 16.9306 29.4545 17.1818 29.4545C17.4331 29.4545 17.6364 29.6578 17.6364 29.9091V31.7272H17.6363ZM19 32.1818C19.2512 32.1818 19.4545 31.9785 19.4545 31.7272V29.9091C19.4545 29.6578 19.2512 29.4545 19 29.4545C18.7487 29.4545 18.5454 29.6578 18.5454 29.9091V31.7272C18.5454 31.9785 18.7487 32.1818 19 32.1818ZM21.2727 31.7272C21.2727 31.9785 21.0694 32.1818 20.8182 32.1818C20.5669 32.1818 20.3636 31.9785 20.3636 31.7272V29.9091C20.3636 29.6578 20.5669 29.4545 20.8182 29.4545C21.0694 29.4545 21.2727 29.6578 21.2727 29.9091V31.7272ZM26.7273 30.8182C26.7273 31.3193 27.1352 31.7272 27.6363 31.7272C28.1375 31.7272 28.5454 31.3193 28.5454 30.8182C28.5454 30.317 28.1375 29.9091 27.6363 29.9091C27.1352 29.9091 26.7273 30.317 26.7273 30.8182ZM30.3636 31.7272C29.8625 31.7272 29.4545 31.3193 29.4545 30.8182C29.4545 30.317 29.8625 29.9091 30.3636 29.9091C30.8647 29.9091 31.2727 30.317 31.2727 30.8182C31.2727 31.3193 30.8647 31.7272 30.3636 31.7272Z" fill="#4888EE"/>
</svg>
