<svg width="125" height="126" viewBox="0 0 125 126" fill="none" xmlns="http://www.w3.org/2000/svg">
<path d="M125 63.125C125 58.8932 123.861 54.9056 121.582 51.1621C119.466 47.4186 116.536 44.4076 112.793 42.1289C113.932 38.0599 113.932 33.9909 112.793 29.9219C111.816 25.6901 109.782 22.028 106.689 18.9355C103.597 15.8431 99.9349 13.8086 95.7031 12.832C91.6341 11.6927 87.5651 11.6927 83.4961 12.832C81.2174 9.08854 78.2064 6.15885 74.4629 4.04297C70.7194 1.76432 66.7318 0.625 62.5 0.625C58.2682 0.625 54.2806 1.76432 50.5371 4.04297C46.7936 6.15885 43.7826 9.08854 41.5039 12.832C37.4349 11.6927 33.2845 11.6927 29.0527 12.832C24.9837 13.8086 21.403 15.8431 18.3105 18.9355C15.2181 22.028 13.1022 25.6901 11.9629 29.9219C10.9863 33.9909 11.0677 38.0599 12.207 42.1289C8.46354 44.4076 5.45247 47.4186 3.17383 51.1621C1.05794 54.9056 0 58.8932 0 63.125C0 67.3568 1.05794 71.3444 3.17383 75.0879C5.45247 78.8314 8.46354 81.8424 12.207 84.1211C11.0677 88.1901 10.9863 92.3405 11.9629 96.5723C13.1022 100.641 15.2181 104.222 18.3105 107.314C21.403 110.407 25.0651 112.441 29.2969 113.418C33.5286 114.557 37.679 114.557 41.748 113.418C43.8639 117.161 46.7936 120.091 50.5371 122.207C54.2806 124.486 58.2682 125.625 62.5 125.625C66.7318 125.625 70.7194 124.486 74.4629 122.207C78.2064 120.091 81.1361 117.161 83.252 113.418C87.4837 114.557 91.6341 114.557 95.7031 113.418C99.9349 112.441 103.597 110.407 106.689 107.314C109.782 104.222 111.816 100.641 112.793 96.5723C113.932 92.3405 113.932 88.1901 112.793 84.1211C116.536 81.8424 119.466 78.8314 121.582 75.0879C123.861 71.3444 125 67.3568 125 63.125ZM102.783 79.7266C102.783 79.8893 102.865 80.1335 103.027 80.459C104.655 83.877 105.632 86.888 105.957 89.4922C106.283 94.2122 104.655 98.2812 101.074 101.699C97.9818 104.954 94.4824 106.582 90.5762 106.582C87.6465 106.582 83.8216 105.524 79.1016 103.408L78.8574 104.141C77.7181 107.721 76.2533 110.488 74.4629 112.441C71.5332 116.022 67.5456 117.812 62.5 117.812C54.6875 117.812 49.235 113.255 46.1426 104.141L45.8984 103.408C41.1784 105.524 37.3535 106.582 34.4238 106.582C30.5176 106.582 27.0182 104.954 23.9258 101.699C18.3919 96.1654 17.7409 89.0853 21.9727 80.459L22.2168 79.7266L21.4844 79.4824C17.9036 78.3431 15.1367 76.8783 13.1836 75.0879C9.60286 72.1582 7.8125 68.1706 7.8125 63.125C7.8125 55.3125 12.3698 49.86 21.4844 46.7676L22.2168 46.5234L21.9727 45.791C20.3451 42.373 19.3685 39.362 19.043 36.7578C18.7174 32.0378 20.3451 27.9688 23.9258 24.5508C29.4596 19.0169 36.5397 18.3659 45.166 22.5977L45.8984 22.8418L46.1426 22.1094C47.2819 18.5286 48.7467 15.7617 50.5371 13.8086C53.4668 10.2279 57.4544 8.4375 62.5 8.4375C70.3125 8.4375 75.765 12.9948 78.8574 22.1094L79.1016 22.8418L79.834 22.5977C83.252 20.9701 86.263 19.9935 88.8672 19.668C93.5872 19.3424 97.6562 20.9701 101.074 24.5508C106.608 30.0846 107.259 37.1647 103.027 45.791L102.783 46.5234L103.516 46.7676C107.096 47.9069 109.863 49.3717 111.816 51.1621C115.397 54.0918 117.188 58.0794 117.188 63.125C117.188 70.9375 112.63 76.39 103.516 79.4824L102.783 79.7266ZM94.7266 45.791L50.7812 89.7363C50.1302 90.2246 49.3978 90.4688 48.584 90.4688C47.9329 90.4688 47.2819 90.1432 46.6309 89.4922L25.6348 68.4961C25.1465 67.8451 24.9023 67.1126 24.9023 66.2988C24.9023 65.485 25.1465 64.834 25.6348 64.3457L27.832 62.1484C28.3203 61.6602 28.9714 61.416 29.7852 61.416C30.599 61.416 31.3314 61.7415 31.9824 62.3926L48.8281 79.2383L88.623 39.6875C89.2741 39.0365 90.0065 38.7109 90.8203 38.7109C91.6341 38.7109 92.2852 39.0365 92.7734 39.6875L94.9707 41.8848C95.459 42.373 95.7031 43.0241 95.7031 43.8379C95.7031 44.6517 95.3776 45.3027 94.7266 45.791Z" fill="#44B600"/>
</svg>
