<svg width="20" height="20" viewBox="0 0 20 20" fill="none" xmlns="http://www.w3.org/2000/svg">
  <path fill="#44B600" d="M3.52272 10.597C3.39649 10.4776 3.33337 10.2985 3.33337 10.1791C3.33337 10.0597 3.39649 9.8806 3.52272 9.76119L4.40635 8.92537C4.65882 8.68657 5.03752 8.68657 5.28998 8.92537L7.79886 11.5373C7.92509 11.6567 8.11444 11.6567 8.24067 11.5373L14.7101 5.1791C14.9626 4.9403 15.3413 4.9403 15.5937 5.1791L16.4774 6.01493C16.7298 6.25373 16.7298 6.61194 16.4774 6.85075L8.43002 14.8209C8.30379 14.9403 8.17756 15 7.98821 15C7.79886 15 7.67262 14.9403 7.54639 14.8209L3.52272 10.597Z"/>
</svg>
