<svg width="48" height="48" viewBox="0 0 48 48" fill="none" xmlns="http://www.w3.org/2000/svg">
    <circle cx="24" cy="24" r="24" fill="#FFE0D2"/>
    <g clip-path="url(#clip0_1931_9490)">
        <path d="M13.8 15C12.8074 15 12 15.8074 12 16.8V19.2C12 19.5315 12.2685 19.8 12.6 19.8H15.6V16.8C15.6 15.8074 14.7926 15 13.8 15ZM21.6 30.4714V28.2H32.4V18.6C32.4 16.6148 30.7853 15 28.8 15H16.1846C16.5653 15.5029 16.8 16.122 16.8 16.8V30.6C16.8 32.0576 18.0994 33.2119 19.6031 32.967C20.7833 32.775 21.6 31.6673 21.6 30.4714ZM22.8 29.4V30.6C22.8 32.5849 21.1853 34.2 19.2 34.2H31.8C34.1198 34.2 36 32.3198 36 30C36 29.6685 35.7315 29.4 35.4 29.4H22.8Z" fill="#FF7439"/>
    </g>
    <defs>
        <clipPath id="clip0_1931_9490">
            <rect width="24" height="19.2" fill="white" transform="translate(12 15)"/>
        </clipPath>
    </defs>
</svg>
