<svg width="48" height="48" viewBox="0 0 48 48" fill="none" xmlns="http://www.w3.org/2000/svg">
<circle opacity="0.16" cx="24" cy="24" r="24" fill="#FF0044" fill-opacity="0.61"/>
<path d="M33.7266 15.2422C33.6745 14.9818 33.5182 14.8255 33.2578 14.7734C32.6849 14.6432 32.112 14.5651 31.5391 14.5391C31.2005 14.513 30.6927 14.5 30.0156 14.5C28.1406 14.5 26.487 14.9818 25.0547 15.9453C23.8828 16.7266 22.7891 17.9115 21.7734 19.5H17.7109C17.3463 19.5 17.0078 19.5911 16.6953 19.7734C16.4088 19.9557 16.1875 20.2031 16.0312 20.5156L14.1172 24.3828C13.9609 24.6953 13.9739 25.0078 14.1562 25.3203C14.3385 25.6068 14.5989 25.75 14.9375 25.75H18.6484C18.388 26.3229 18.1536 26.8177 17.9453 27.2344C17.8932 27.3385 17.8802 27.4688 17.9062 27.625C17.9323 27.7552 17.9844 27.8594 18.0625 27.9375L20.5625 30.4375C20.6406 30.5156 20.7448 30.5677 20.875 30.5938C21.0312 30.6198 21.1614 30.6068 21.2656 30.5547C21.6302 30.3724 22.125 30.138 22.75 29.8516V33.5625C22.75 33.901 22.8932 34.1615 23.1797 34.3438C23.4922 34.526 23.8047 34.5521 24.1172 34.4219L27.9453 32.4688C28.2838 32.3125 28.5443 32.0911 28.7266 31.8047C28.9088 31.4922 29 31.1536 29 30.7891V26.7266C30.5625 25.7109 31.7474 24.6042 32.5547 23.4062C33.5182 22 34 20.3594 34 18.4844C34 17.8333 33.987 17.3255 33.9609 16.9609C33.9349 16.388 33.8568 15.8151 33.7266 15.2422ZM29.625 20.75C29.1042 20.75 28.6614 20.5677 28.2969 20.2031C27.9323 19.8385 27.75 19.3958 27.75 18.875C27.75 18.3542 27.9323 17.9115 28.2969 17.5469C28.6614 17.1823 29.1042 17 29.625 17C30.1458 17 30.5885 17.1823 30.9531 17.5469C31.3177 17.9115 31.5 18.3542 31.5 18.875C31.5 19.3958 31.3177 19.8385 30.9531 20.2031C30.5885 20.5677 30.1458 20.75 29.625 20.75Z" fill="#D80027"/>
</svg>
