<svg width="24" height="24" viewBox="0 0 24 24" fill="none" xmlns="http://www.w3.org/2000/svg">
<path fill-rule="evenodd" clip-rule="evenodd" d="M19.418 6.10938H17.8359V5.58203C17.8359 4.7097 17.1262 4 16.2539 4H4.58203C3.7097 4 3 4.7097 3 5.58203V14.0195C3 14.8919 3.7097 15.6016 4.58203 15.6016H6.16406V18.2383C6.16406 18.7088 6.73437 18.9411 7.06427 18.6111L7.96452 17.7109H13.9261L16.9357 20.7205C17.2658 21.0507 17.8359 20.819 17.8359 20.3477V17.7109H19.4179C20.2903 17.7109 21 17.0012 21 16.1289V7.69141C21 6.81907 20.2903 6.10938 19.418 6.10938ZM7.21875 16.9652V15.0742C7.21875 14.783 6.98264 14.5469 6.69141 14.5469H4.58203C4.29125 14.5469 4.05469 14.3103 4.05469 14.0195V5.58203C4.05469 5.29125 4.29125 5.05469 4.58203 5.05469H16.2539C16.5447 5.05469 16.7812 5.29125 16.7812 5.58203V14.0195C16.7812 14.3103 16.5447 14.5469 16.2539 14.5469H9.85547C9.71558 14.5469 9.5815 14.6025 9.4826 14.7014L7.21875 16.9652ZM19.418 16.6562C19.7087 16.6562 19.9453 16.4197 19.9453 16.1289V7.69141C19.9453 7.40063 19.7087 7.16406 19.418 7.16406H17.8359V14.0195C17.8359 14.8919 17.1262 15.6016 16.2539 15.6016H10.0739L9.01921 16.6562H14.1445C14.2844 16.6562 14.4185 16.7118 14.5174 16.8107L16.7812 19.0745V17.1836C16.7812 16.8924 17.0174 16.6562 17.3086 16.6562H19.418Z" fill="black"/>
<path d="M13.0898 7.16406H5.63672C5.34548 7.16406 5.10938 7.40017 5.10938 7.69141C5.10938 7.98264 5.34548 8.21875 5.63672 8.21875H13.0898C13.3811 8.21875 13.6172 7.98264 13.6172 7.69141C13.6172 7.40017 13.3811 7.16406 13.0898 7.16406Z" fill="black"/>
<path d="M15.1992 9.27344H5.63672C5.34548 9.27344 5.10938 9.50955 5.10938 9.80078C5.10938 10.092 5.34548 10.3281 5.63672 10.3281H15.1992C15.4905 10.3281 15.7266 10.092 15.7266 9.80078C15.7266 9.50955 15.4905 9.27344 15.1992 9.27344Z" fill="black"/>
<path d="M10.9805 11.3828H5.63672C5.34548 11.3828 5.10938 11.6189 5.10938 11.9102C5.10938 12.2014 5.34548 12.4375 5.63672 12.4375H10.9805C11.2717 12.4375 11.5078 12.2014 11.5078 11.9102C11.5078 11.6189 11.2717 11.3828 10.9805 11.3828Z" fill="black"/>
</svg>
