<svg width="306" height="306" viewBox="0 0 306 306" fill="none" xmlns="http://www.w3.org/2000/svg">
<circle cx="153" cy="153" r="150" fill="white" stroke="#CCCCCC" stroke-width="6"/>
<path fill-rule="evenodd" clip-rule="evenodd" d="M190.201 165.204C191.037 164.667 191.838 164.049 192.569 163.318C195.368 160.52 196.713 156.839 196.647 153.174C196.711 149.507 195.362 145.824 192.565 143.028C191.838 142.296 191.036 141.679 190.201 141.142L134.155 85.0988C128.685 79.6348 119.817 79.6317 114.347 85.1017C108.877 90.5698 108.877 99.4367 114.347 104.91L162.612 153.175L114.103 201.691C108.632 207.159 108.632 216.029 114.103 221.499C116.839 224.235 120.421 225.602 124.005 225.602C127.589 225.602 131.173 224.235 133.907 221.499L190.201 165.204Z" fill="black"/>
</svg>
