<svg width="48" height="48" viewBox="0 0 48 48" fill="none" xmlns="http://www.w3.org/2000/svg">
    <circle cx="24" cy="24" r="24" fill="#FFE0D2"/>
    <path d="M35.6719 21.3281L34.5938 20.2969C34.375 20.0781 34.1094 19.9688 33.7969 19.9688C33.4844 19.9688 33.2188 20.0781 33 20.2969L32.7656 20.5312L27.4688 15.2344L27.7031 15C27.9219 14.7812 28.0312 14.5156 28.0312 14.2031C28.0312 13.8906 27.9219 13.625 27.7031 13.4062L26.6719 12.3281C26.4531 12.1094 26.1875 12 25.875 12C25.5625 12 25.2969 12.1094 25.0781 12.3281L19.2188 18.1406C19 18.3906 18.8906 18.6719 18.8906 18.9844C18.8906 19.2656 19 19.5156 19.2188 19.7344L20.2969 20.8125C20.5156 21.0312 20.7812 21.1406 21.0938 21.1406C21.4062 21.1406 21.6719 21.0312 21.8906 20.8125L22.125 20.5312L24 22.4062L20.2031 26.2031L19.9219 25.9219C19.6406 25.6406 19.2812 25.5 18.8438 25.5C18.4375 25.5 18.0938 25.6406 17.8125 25.9219L12.4219 31.3125C12.1406 31.5938 12 31.9531 12 32.3906C12 32.7969 12.1406 33.1406 12.4219 33.4219L14.5781 35.5781C14.8594 35.8594 15.2031 36 15.6094 36C16.0469 36 16.4062 35.8594 16.6875 35.5781L22.0781 30.1875C22.3594 29.9062 22.5 29.5625 22.5 29.1562C22.5 28.7188 22.3594 28.3594 22.0781 28.0781L21.7969 27.7969L25.5938 24L27.4688 25.875L27.1875 26.1094C26.9688 26.3281 26.8594 26.5938 26.8594 26.9062C26.8594 27.2188 26.9688 27.4844 27.1875 27.7031L28.2656 28.7812C28.4844 29 28.7344 29.1094 29.0156 29.1094C29.3281 29.1094 29.6094 29 29.8594 28.7812L35.6719 22.9219C35.8906 22.7031 36 22.4375 36 22.125C36 21.8125 35.8906 21.5469 35.6719 21.3281Z" fill="#FF7439"/>
</svg>
