<svg width="48" height="48" viewBox="0 0 48 48" fill="none" xmlns="http://www.w3.org/2000/svg">
<circle opacity="0.16" cx="24" cy="24" r="24" fill="#3C24B3"/>
<path fill-rule="evenodd" clip-rule="evenodd" d="M30.7306 26.4578C30.2657 26.3436 29.7797 26.2825 29.2796 26.2825C25.9444 26.2825 23.2409 28.9756 23.2409 32.2976C23.2409 32.8097 23.3053 33.3068 23.4262 33.7816H17.3115C15.4854 33.7816 14 32.3017 14 30.4826V16.2988C14 14.4798 15.4854 13 17.3115 13H27.4191C29.2451 13 30.7306 14.4798 30.7306 16.2988V26.4578ZM27.1728 15.7987H17.6604C17.2706 15.7987 16.9546 16.1135 16.9546 16.5019C16.9546 16.89 17.2707 17.205 17.6604 17.205H27.1728C27.5626 17.205 27.8787 16.89 27.8787 16.5019C27.8787 16.1135 27.5626 15.7987 27.1728 15.7987ZM17.6604 18.2118H25.761C26.1509 18.2118 26.4669 18.5267 26.4669 18.9149C26.4669 19.3032 26.1509 19.618 25.761 19.618H17.6604C17.2707 19.618 16.9546 19.3032 16.9546 18.9149C16.9546 18.5267 17.2706 18.2118 17.6604 18.2118ZM27.1215 20.6248H17.6604C17.2706 20.6248 16.9546 20.9396 16.9546 21.3279C16.9546 21.7161 17.2707 22.0311 17.6604 22.0311H27.1215C27.5113 22.0311 27.8274 21.7161 27.8274 21.3279C27.8274 20.9396 27.5113 20.6248 27.1215 20.6248ZM19.9582 31.0628H17.6604C17.2707 31.0628 16.9546 30.7479 16.9546 30.3597C16.9546 29.9714 17.2707 29.6566 17.6604 29.6566H19.9582C20.3481 29.6566 20.6641 29.9714 20.6641 30.3597C20.6641 30.7479 20.3481 31.0628 19.9582 31.0628ZM29.2796 27.5951C26.6766 27.5951 24.5591 29.7045 24.5591 32.2976C24.5591 34.8905 26.6766 37 29.2796 37C31.8825 37 34 34.8905 34 32.2977C34 29.7045 31.8824 27.5951 29.2796 27.5951ZM31.3696 31.5599L29.1812 33.7398C29.0434 33.8778 28.8621 33.9471 28.6806 33.9471C28.5029 33.9471 28.3247 33.8805 28.1875 33.7469L27.1951 32.7814C26.9163 32.5101 26.9112 32.0648 27.1835 31.7869C27.456 31.5092 27.9029 31.5041 28.1818 31.7755L28.675 32.2554L30.3715 30.5655C30.6471 30.291 31.0941 30.291 31.3696 30.5655C31.6453 30.8402 31.6453 31.2854 31.3696 31.5599Z" fill="#3C24B3"/>
</svg>
