<svg width="48" height="48" viewBox="0 0 48 48" fill="none" xmlns="http://www.w3.org/2000/svg">
<circle opacity="0.35" cx="24" cy="24" r="24" fill="#FFC95B"/>
<path d="M35.6691 19.3926L28.3688 16C27.6152 16.9773 25.9467 17.6594 24.0007 17.6594C22.0547 17.6594 20.3861 16.9773 19.6325 16L12.3322 19.3926C12.036 19.5332 11.916 19.8707 12.0623 20.1484L14.207 24.1738C14.3569 24.4516 14.7169 24.5641 15.0131 24.427L17.1353 23.4531C17.5328 23.2703 17.9977 23.541 17.9977 23.9594V32.875C17.9977 33.4973 18.5339 34 19.1976 34H28.7963C29.4599 34 29.9961 33.4973 29.9961 32.875V23.9559C29.9961 23.541 30.4611 23.2668 30.8585 23.4496L32.9807 24.4234C33.2769 24.5641 33.6369 24.4516 33.7869 24.1703L35.9353 20.1484C36.0853 19.8707 35.9653 19.5297 35.6691 19.3926Z" fill="#FFBC5B"/>
</svg>
