<svg width="24" height="24" viewBox="0 0 24 24" fill="none" xmlns="http://www.w3.org/2000/svg">
<path d="M17.2521 19.4999H17.2523C17.3166 19.4999 17.3738 19.4704 17.4109 19.4169C17.459 19.3474 17.5 19.2427 17.5 19.0911V5.3582C17.5 4.91906 17.0854 4.5 16.5886 4.5H7.36132C6.88812 4.5 6.5 4.89596 6.5 5.3582V19.0911C6.5 19.3117 6.56067 19.4101 6.59383 19.447C6.62612 19.483 6.66615 19.5 6.71505 19.5C6.77089 19.5 6.87219 19.4763 7.02769 19.3428L7.02811 19.3424L11.1421 15.8173C11.1423 15.8171 11.1424 15.817 11.1426 15.8169C11.1426 15.8169 11.1426 15.8169 11.1426 15.8168C11.3733 15.6189 11.6763 15.5239 11.9689 15.5239C12.2611 15.5239 12.5646 15.6186 12.7952 15.8164C12.7954 15.8166 12.7957 15.8168 12.7959 15.817L16.9231 19.3424L16.9242 19.3434C17.0704 19.469 17.1875 19.4999 17.2521 19.4999Z" stroke="black"/>
</svg>
