<svg width="24" height="24" viewBox="0 0 24 24" fill="none" xmlns="http://www.w3.org/2000/svg">
<path d="M7.36132 4H16.5886C17.3401 4 18 4.62198 18 5.3582V19.0911C18 19.3375 17.9318 19.5429 17.8219 19.7016C17.6905 19.8913 17.479 20 17.2521 19.9999C17.0376 19.9999 16.8092 19.9039 16.5983 19.7226L12.47 16.1962C12.3425 16.0867 12.1594 16.0239 11.9689 16.0239C11.7786 16.0239 11.5958 16.0867 11.468 16.1965L7.35345 19.7221C7.1418 19.9039 6.92917 20 6.71505 20C6.35295 20 6 19.719 6 19.0911V5.3582C6 4.62198 6.60982 4 7.36132 4Z" fill="#FF2D55"/>
</svg>
