<svg width="24" height="24" viewBox="0 0 24 24" fill="none" xmlns="http://www.w3.org/2000/svg">
<path fill-rule="evenodd" clip-rule="evenodd" d="M4 12C4 7.58853 7.58853 4 12 4C16.4115 4 20 7.58853 20 12C20 16.4115 16.4115 20 12 20C7.58853 20 4 16.4115 4 12ZM5.23934 12C5.23934 15.7273 8.27266 18.7607 12 18.7607C15.7273 18.7607 18.7607 15.7273 18.7607 12C18.7607 8.27266 15.728 5.23934 12 5.23934C8.27266 5.23934 5.23934 8.27266 5.23934 12ZM12.6197 11.7397L14.8505 13.4128C15.1244 13.618 15.1802 14.0065 14.9744 14.2798C14.8529 14.4434 14.667 14.5283 14.478 14.5283C14.3485 14.5283 14.2184 14.488 14.1068 14.4044L11.6282 12.5453C11.472 12.4288 11.3803 12.2448 11.3803 12.0496V8.33153C11.3803 7.98884 11.6573 7.71184 12 7.71184C12.3427 7.71184 12.6197 7.98884 12.6197 8.33153V11.7397Z" fill="#736E7D"/>
</svg>
