<svg width="12" height="16" viewBox="0 0 12 16" fill="none" xmlns="http://www.w3.org/2000/svg">
<path opacity="0.6" d="M8.4375 8.14062V8.96094C8.4375 9.05859 8.39844 9.14648 8.32031 9.22461C8.26172 9.2832 8.18359 9.3125 8.08594 9.3125H3.16406C3.06641 9.3125 2.97852 9.2832 2.90039 9.22461C2.8418 9.14648 2.8125 9.05859 2.8125 8.96094V8.14062C2.8125 8.04297 2.8418 7.96484 2.90039 7.90625C2.97852 7.82812 3.06641 7.78906 3.16406 7.78906H8.08594C8.18359 7.78906 8.26172 7.82812 8.32031 7.90625C8.39844 7.96484 8.4375 8.04297 8.4375 8.14062ZM8.08594 10.25H3.16406C3.06641 10.25 2.97852 10.2891 2.90039 10.3672C2.8418 10.4258 2.8125 10.5039 2.8125 10.6016V11.4219C2.8125 11.5195 2.8418 11.6074 2.90039 11.6855C2.97852 11.7441 3.06641 11.7734 3.16406 11.7734H8.08594C8.18359 11.7734 8.26172 11.7441 8.32031 11.6855C8.39844 11.6074 8.4375 11.5195 8.4375 11.4219V10.6016C8.4375 10.5039 8.39844 10.4258 8.32031 10.3672C8.26172 10.2891 8.18359 10.25 8.08594 10.25ZM11.25 4.74219V14.4688C11.25 14.8594 11.1133 15.1914 10.8398 15.4648C10.5664 15.7383 10.2344 15.875 9.84375 15.875H1.40625C1.01562 15.875 0.683594 15.7383 0.410156 15.4648C0.136719 15.1914 0 14.8594 0 14.4688V2.28125C0 1.89062 0.136719 1.55859 0.410156 1.28516C0.683594 1.01172 1.01562 0.875 1.40625 0.875H7.38281C7.77344 0.875 8.10547 1.01172 8.37891 1.28516L10.8398 3.74609C11.1133 4.01953 11.25 4.35156 11.25 4.74219ZM7.5 2.39844V4.625H9.72656L7.5 2.39844ZM9.84375 14.4688V6.03125H6.79688C6.60156 6.03125 6.43555 5.96289 6.29883 5.82617C6.16211 5.68945 6.09375 5.52344 6.09375 5.32812V2.28125H1.40625V14.4688H9.84375Z" fill="black"/>
</svg>
